<?xml version="1.0" standalone="no"?>
<!DOCTYPE svg PUBLIC "-//W3C//DTD SVG 20010904//EN"
 "http://www.w3.org/TR/2001/REC-SVG-20010904/DTD/svg10.dtd">
<svg version="1.0" xmlns="http://www.w3.org/2000/svg"
 width="260.000000pt" height="260.000000pt" viewBox="0 0 260.000000 260.000000"
 preserveAspectRatio="xMidYMid meet">
<metadata>
Created by potrace 1.14, written by Peter Selinger 2001-2017
</metadata>
<g transform="translate(0.000000,260.000000) scale(0.100000,-0.100000)"
fill="#000000" stroke="none">
<path d="M400 2287 c30 -32 72 -67 93 -78 20 -11 37 -23 37 -27 0 -4 24 -20
53 -36 51 -29 51 -29 27 -4 -14 13 -54 42 -90 62 -36 21 -90 61 -120 89 l-55
52 55 -58z"/>
<path d="M335 2289 c3 -9 35 -36 70 -60 35 -24 59 -46 54 -50 -6 -3 2 -9 18
-13 15 -4 37 -9 48 -12 20 -5 20 -5 1 10 -11 9 -16 16 -10 16 5 0 -25 19 -66
41 -41 22 -85 50 -98 62 -16 15 -21 17 -17 6z"/>
<path d="M398 2176 c29 -19 48 -37 43 -41 -18 -11 -12 -25 17 -38 29 -13 92
-71 92 -85 0 -5 15 -22 33 -38 29 -26 37 -28 82 -23 28 3 37 7 22 7 -28 2
-107 37 -107 48 0 4 28 4 63 1 l62 -6 -50 13 c-66 17 -126 49 -148 81 -20 28
-13 31 42 15 58 -16 46 -3 -13 15 -31 10 -68 29 -82 42 -29 26 -65 43 -92 43
-9 0 7 -16 36 -34z"/>
<path d="M670 2096 c0 -2 7 -7 16 -10 8 -3 12 -2 9 4 -6 10 -25 14 -25 6z"/>
<path d="M817 2028 c16 -13 58 -39 92 -58 35 -19 98 -64 140 -100 43 -36 89
-74 103 -85 13 -11 18 -16 11 -11 -20 13 -29 -2 -15 -24 7 -11 12 -26 12 -34
0 -8 7 -17 16 -20 8 -3 12 -11 9 -16 -4 -6 -4 -24 0 -40 6 -26 9 -28 26 -17
18 11 49 74 49 101 0 8 -19 26 -42 40 -24 14 -70 48 -103 76 -33 27 -92 72
-131 99 -104 72 -250 150 -167 89z"/>
<path d="M758 1993 c7 -3 16 -2 19 1 4 3 -2 6 -13 5 -11 0 -14 -3 -6 -6z"/>
<path d="M768 1953 c6 -2 18 -2 25 0 6 3 1 5 -13 5 -14 0 -19 -2 -12 -5z"/>
<path d="M620 1915 c7 -9 15 -13 17 -11 7 7 -7 26 -19 26 -6 0 -6 -6 2 -15z"/>
<path d="M2309 1888 c-78 -46 -159 -62 -379 -76 -114 -8 -149 -14 -225 -42
-94 -34 -126 -39 -162 -27 -23 8 -26 -4 -8 -33 5 -8 8 -28 6 -45 l-3 -30 29
25 c15 14 33 30 38 36 6 6 54 27 108 48 93 34 196 56 262 55 l30 -1 -35 -13
c-19 -7 -29 -14 -22 -14 7 -1 10 -5 7 -11 -3 -5 -1 -10 4 -10 6 0 11 7 11 15
0 12 9 14 43 10 32 -4 36 -3 17 4 -22 8 -22 9 -5 11 11 1 25 2 32 1 6 -1 14 3
18 9 8 13 152 13 160 0 3 -6 18 -7 33 -4 39 10 46 15 31 25 -12 7 -11 9 1 9 8
1 29 7 45 14 30 14 29 14 -15 9 l-45 -6 48 38 c26 21 47 39 47 41 0 5 4 7 -71
-38z"/>
<path d="M860 1906 c0 -2 9 -6 20 -9 11 -3 20 -1 20 4 0 5 -9 9 -20 9 -11 0
-20 -2 -20 -4z"/>
<path d="M728 1893 c7 -3 16 -2 19 1 4 3 -2 6 -13 5 -11 0 -14 -3 -6 -6z"/>
<path d="M935 1850 c-3 -5 -2 -10 4 -10 5 0 13 5 16 10 3 6 2 10 -4 10 -5 0
-13 -4 -16 -10z"/>
<path d="M718 1843 c6 -2 18 -2 25 0 6 3 1 5 -13 5 -14 0 -19 -2 -12 -5z"/>
<path d="M960 1809 c-7 -11 -10 -23 -7 -25 2 -2 9 7 15 21 14 30 7 33 -8 4z"/>
<path d="M770 1791 c-23 -6 -23 -8 -6 -14 13 -5 25 -2 35 8 16 16 11 17 -29 6z"/>
<path d="M977 1774 l-18 -24 26 12 c25 11 32 23 18 31 -5 3 -16 -6 -26 -19z"/>
<path d="M1440 1786 c0 -7 9 -16 21 -19 15 -4 19 -2 15 10 -3 8 -6 17 -6 19 0
2 -7 4 -15 4 -8 0 -15 -6 -15 -14z"/>
<path d="M2186 1775 c5 -12 -3 -15 -36 -15 -24 0 -39 -4 -35 -10 7 -11 59 -4
92 12 25 12 21 28 -7 28 -13 0 -17 -5 -14 -15z"/>
<path d="M1025 1751 c-4 -13 -4 -25 -1 -28 3 -4 6 0 6 8 0 11 2 11 10 -1 9
-13 10 -13 10 0 0 8 -4 21 -9 29 -7 11 -10 9 -16 -8z"/>
<path d="M2004 1735 c11 -8 22 -19 26 -24 3 -6 11 -7 18 -2 8 5 -1 13 -25 24
-30 14 -34 14 -19 2z"/>
<path d="M1680 1670 c-8 -5 -12 -12 -9 -15 4 -3 12 1 19 10 14 17 11 19 -10 5z"/>
<path d="M880 1661 c0 -5 5 -13 10 -16 6 -3 10 -2 10 4 0 5 -4 13 -10 16 -5 3
-10 2 -10 -4z"/>
<path d="M1591 1632 c-25 -15 -47 -34 -49 -41 -3 -9 6 -7 25 7 17 12 32 19 35
17 2 -3 15 6 28 20 30 32 17 31 -39 -3z"/>
<path d="M971 1624 c0 -11 3 -14 6 -6 3 7 2 16 -1 19 -3 4 -6 -2 -5 -13z"/>
<path d="M1025 1594 c-4 -22 -2 -41 4 -47 8 -8 11 3 11 36 0 56 -5 60 -15 11z"/>
<path d="M1546 1543 c-25 -31 -43 -59 -41 -62 3 -2 6 -2 8 0 1 2 22 30 45 62
55 74 46 74 -12 0z"/>
<path d="M1121 1525 c0 -22 6 -51 14 -65 13 -22 14 -23 14 -5 1 11 -6 40 -13
65 l-15 45 0 -40z"/>
<path d="M1171 1454 c0 -11 3 -14 6 -6 3 7 2 16 -1 19 -3 4 -6 -2 -5 -13z"/>
<path d="M1360 1329 c0 -5 5 -7 10 -4 6 3 10 8 10 11 0 2 -4 4 -10 4 -5 0 -10
-5 -10 -11z"/>
<path d="M1220 1318 c0 -7 5 -20 10 -28 8 -12 10 -12 10 5 0 17 2 17 10 5 6
-9 10 -10 10 -3 0 7 -9 17 -20 23 -15 8 -20 8 -20 -2z"/>
<path d="M1164 1179 c-10 -12 -18 -24 -17 -28 6 -14 -9 -40 -32 -55 -19 -13
-25 -13 -25 -3 0 7 5 18 12 25 21 21 0 25 -34 5 -18 -11 -33 -27 -33 -37 0 -9
-16 -31 -36 -49 -19 -18 -26 -25 -15 -17 16 13 16 10 -4 -17 -23 -32 -39 -45
-24 -20 5 8 2 7 -9 -2 -10 -8 -15 -16 -12 -19 3 -3 -4 -11 -15 -19 -10 -7 -17
-19 -14 -27 3 -7 -21 -48 -53 -92 -121 -164 -120 -179 2 -25 45 56 88 100 97
101 10 0 41 21 70 47 42 37 54 43 56 30 3 -12 14 -17 38 -17 27 0 34 -4 34
-19 0 -26 17 -36 35 -21 13 11 15 7 15 -24 0 -25 6 -40 20 -48 18 -12 20 -24
20 -155 0 -151 3 -173 27 -173 14 0 15 18 9 143 -10 215 -18 295 -27 272 -4
-12 -6 1 -3 30 15 202 14 212 -23 160 -46 -65 -51 -70 -63 -58 -10 9 -8 25 7
72 11 34 19 61 18 61 -1 0 -10 -9 -21 -21z"/>
<path d="M1009 1063 c-13 -16 -12 -17 4 -4 9 7 17 15 17 17 0 8 -8 3 -21 -13z"/>
<path d="M653 596 c-32 -40 -67 -77 -78 -82 -22 -10 -95 -103 -95 -121 0 -48
83 34 167 162 78 120 75 115 69 115 -2 0 -31 -33 -63 -74z"/>
<path d="M1321 465 c-1 -16 -8 -43 -17 -60 -12 -24 -14 -46 -9 -105 9 -97 20
-127 40 -110 10 8 15 30 14 64 0 60 -26 255 -28 211z"/>
</g>
</svg>
